<!DOCTYPE svg PUBLIC "-//W3C//DTD SVG 20010904//EN" "http://www.w3.org/TR/2001/REC-SVG-20010904/DTD/svg10.dtd">
<svg version="1.0" xmlns="http://www.w3.org/2000/svg" width="484px" height="249px" viewBox="0 0 4840 2490" preserveAspectRatio="xMidYMid meet">
<g id="layer1" fill="#000000" stroke="none">
 <path d="M719 2176 c-72 -16 -77 -20 -101 -75 -17 -39 -19 -58 -13 -131 6 -83 8 -87 67 -177 60 -91 60 -93 51 -140 l-8 -48 -95 3 c-99 3 -302 -26 -321 -45 -7 -7 -6 -42 5 -111 9 -54 16 -102 16 -105 0 -2 49 -50 109 -106 l109 -101 208 -74 c226 -79 210 -68 231 -156 l9 -35 139 -10 140 -10 -2 -30 c-2 -16 -10 -99 -18 -184 -13 -127 -14 -157 -3 -167 7 -7 114 -51 238 -98 l226 -86 559 -65 560 -66 260 11 c223 10 293 17 495 50 131 22 315 62 416 89 l182 49 135 -25 136 -25 32 22 c21 15 43 49 65 97 32 70 34 81 49 290 l16 218 -56 335 -56 335 -75 117 c-42 65 -81 118 -88 118 -6 0 -69 -42 -139 -94 -73 -54 -142 -96 -160 -100 -18 -3 -196 -30 -397 -61 -344 -52 -394 -57 -850 -85 l-485 -29 -473 80 c-346 58 -477 77 -487 69 -16 -13 -23 -52 -40 -208 -7 -68 -15 -126 -19 -129 -3 -3 -65 6 -137 21 -82 18 -134 25 -140 19 -6 -6 -12 -27 -15 -49 -13 -96 -17 -99 -93 -61 -42 21 -46 26 -62 87 -10 36 -18 72 -19 81 0 27 83 128 128 155 23 14 42 31 42 37 0 7 -9 74 -21 150 -12 76 -19 140 -16 143 3 4 28 1 56 -6 37 -9 81 -35 171 -102 l121 -91 77 18 c42 9 84 21 93 26 9 4 71 53 138 107 l122 99 92 -19 c50 -10 98 -16 106 -13 10 4 12 17 7 57 -10 70 -61 140 -129 175 -50 25 -54 25 -134 14 -55 -8 -137 -32 -249 -75 l-168 -63 -156 68 c-86 37 -184 81 -218 98 -67 34 -79 35 -163 17z"/>
 </g>

</svg>